<svg width="115" height="110" viewBox="0 0 115 110" fill="none" xmlns="http://www.w3.org/2000/svg">
<g filter="url(#filter0_df_103_13)">
<path d="M54.9513 25.2169C60.3634 17.7954 71.9498 19.8836 74.4303 28.7277L76.8805 37.4634C78.0166 41.5143 81.367 44.5602 85.5075 45.3065L93.1615 46.686C102.76 48.416 103.411 61.9361 94.0225 64.5797C89.1396 65.9547 86.2936 71.0254 87.6636 75.9097L87.8629 76.6204C90.4094 85.6997 80.0548 92.8839 72.4416 87.32L60.3028 78.4488C57.5752 76.4554 54.0829 75.8259 50.8309 76.7416L36.3588 80.8167C27.2821 83.3725 20.0873 73.0253 25.6434 65.4064L26.0783 64.81C29.0672 60.7113 28.1707 54.966 24.0751 51.9729C16.2003 46.2178 21.5301 33.7756 31.129 35.5056L38.7831 36.8852C42.9236 37.6314 47.1265 35.9469 49.6055 32.5475L54.9513 25.2169Z" fill="url(#paint0_linear_103_13)" shape-rendering="crispEdges"/>
</g>
<defs>
<filter id="filter0_df_103_13" x="0.270508" y="0.693848" width="120.453" height="108.58" filterUnits="userSpaceOnUse" color-interpolation-filters="sRGB">
<feFlood flood-opacity="0" result="BackgroundImageFix"/>
<feColorMatrix in="SourceAlpha" type="matrix" values="0 0 0 0 0 0 0 0 0 0 0 0 0 0 0 0 0 0 127 0" result="hardAlpha"/>
<feOffset dy="4"/>
<feGaussianBlur stdDeviation="2"/>
<feComposite in2="hardAlpha" operator="out"/>
<feColorMatrix type="matrix" values="0 0 0 0 0 0 0 0 0 0 0 0 0 0 0 0 0 0 0.25 0"/>
<feBlend mode="normal" in2="BackgroundImageFix" result="effect1_dropShadow_103_13"/>
<feBlend mode="normal" in="SourceGraphic" in2="effect1_dropShadow_103_13" result="shape"/>
<feGaussianBlur stdDeviation="10" result="effect2_foregroundBlur_103_13"/>
</filter>
<linearGradient id="paint0_linear_103_13" x1="67.2305" y1="-6.41968" x2="50.4696" y2="105.876" gradientUnits="userSpaceOnUse">
<stop stop-color="#FF428C" stop-opacity="0.5"/>
<stop offset="1" stop-color="#FE9DD4" stop-opacity="0.5"/>
</linearGradient>
</defs>
</svg>
